<svg width="28" height="28" viewBox="0 0 28 28" fill="none" xmlns="http://www.w3.org/2000/svg">
<path d="M14.875 8.75001V13.5045L18.8256 15.8747C19.0246 15.9942 19.168 16.1879 19.2242 16.4131C19.2804 16.6383 19.2448 16.8766 19.1253 17.0756C19.0058 17.2746 18.8121 17.418 18.5869 17.4742C18.3617 17.5304 18.1234 17.4948 17.9244 17.3753L13.5494 14.7503C13.4199 14.6725 13.3127 14.5625 13.2384 14.431C13.164 14.2996 13.1249 14.1511 13.125 14V8.75001C13.125 8.51794 13.2172 8.29538 13.3813 8.13129C13.5454 7.96719 13.7679 7.87501 14 7.87501C14.232 7.87501 14.4546 7.96719 14.6187 8.13129C14.7828 8.29538 14.875 8.51794 14.875 8.75001ZM24.5 6.12501C24.2679 6.12501 24.0454 6.21719 23.8813 6.38129C23.7172 6.54538 23.625 6.76794 23.625 7.00001V8.96876C22.9305 8.16376 22.2217 7.38829 21.4244 6.5811C19.9651 5.12172 18.1082 4.12471 16.0856 3.71466C14.063 3.30461 11.9643 3.4997 10.052 4.27555C8.13959 5.0514 6.49825 6.37361 5.33304 8.07696C4.16782 9.78031 3.53041 11.7893 3.50044 13.8528C3.47046 15.9164 4.04927 17.943 5.16452 19.6795C6.27977 21.416 7.88202 22.7853 9.77106 23.6163C11.6601 24.4474 13.7522 24.7034 15.7858 24.3522C17.8195 24.0011 19.7046 23.0584 21.2056 21.642C21.2892 21.563 21.3564 21.4683 21.4034 21.3634C21.4504 21.2584 21.4763 21.1452 21.4795 21.0302C21.4828 20.9153 21.4634 20.8008 21.4224 20.6933C21.3814 20.5858 21.3196 20.4875 21.2406 20.4039C21.1616 20.3203 21.0669 20.2531 20.9619 20.2061C20.857 20.1591 20.7438 20.1332 20.6288 20.13C20.5138 20.1267 20.3993 20.1462 20.2919 20.1872C20.1844 20.2282 20.0861 20.2899 20.0025 20.3689C18.7513 21.5481 17.1804 22.3325 15.4861 22.6242C13.7917 22.9159 12.049 22.702 10.4755 22.0092C8.90199 21.3164 7.56744 20.1754 6.63851 18.7287C5.70958 17.282 5.22744 15.5937 5.25229 13.8746C5.27715 12.1555 5.80789 10.4818 6.77825 9.06257C7.74861 7.64331 9.11558 6.54137 10.7085 5.89435C12.3013 5.24733 14.0495 5.0839 15.7347 5.42449C17.4199 5.76507 18.9674 6.59456 20.184 7.80938C21.0744 8.71063 21.8542 9.57907 22.6406 10.5H20.125C19.8929 10.5 19.6704 10.5922 19.5063 10.7563C19.3422 10.9204 19.25 11.1429 19.25 11.375C19.25 11.6071 19.3422 11.8296 19.5063 11.9937C19.6704 12.1578 19.8929 12.25 20.125 12.25H24.5C24.732 12.25 24.9546 12.1578 25.1187 11.9937C25.2828 11.8296 25.375 11.6071 25.375 11.375V7.00001C25.375 6.76794 25.2828 6.54538 25.1187 6.38129C24.9546 6.21719 24.732 6.12501 24.5 6.12501Z" fill="#B8B8B8"/>
</svg>
