<svg xmlns="http://www.w3.org/2000/svg" width="45" height="64" viewBox="0 0 45 64" fill="none">
  <path d="M1.53527 48.5565C4.37392 56.1383 4.54849 59.0096 3.38827 62.6979C5.79473 59.8171 7.24804 58.2372 11.1904 55.871C27.2367 45.9192 25.4625 32.7543 25.0392 11.2039C18.5393 22.4314 13.5314 25.2477 3.97384 33.7325C-1.00005 38.4138 -0.122398 44.8505 1.53527 48.5565Z" fill="url(#paint0_linear_59_86)"/>
  <path d="M26.4052 11.2039C28.2535 34.227 26.8911 44.8704 15.1897 55.0908C29.7821 49.9497 34.5035 37.0901 36.6455 1.15868C33.6108 2.57052 32.3075 3.90782 30.5014 7.01027C29.0925 9.19595 28.1657 10.0309 26.4052 11.2039Z" fill="url(#paint1_linear_59_86)"/>
  <path d="M37.523 2.23147C37.1344 28.3479 35.3274 38.3217 28.7456 46.3135C38.0072 41.2676 41.7347 34.6944 43.9597 11.6915C41.6949 10.8354 41.0339 10.4237 40.2537 7.69295C39.8636 5.54737 38.929 4.04564 37.523 2.23147Z" fill="url(#paint2_linear_59_86)"/>
  <path d="M1.9473 48.4333C4.24554 55.5378 5.74306 58.9734 4.51971 62.3232C6.85753 59.7696 7.64749 57.0505 11.3789 55.0353C26.5802 46.5373 25.4176 32.4727 25.9293 12.5987C19.4706 22.6715 13.6804 27.6399 4.51918 35.0578C-0.259573 39.1629 0.575022 44.9493 1.9473 48.4333Z" fill="#B3B3B3" fill-opacity="0.64"/>
  <path d="M27.1879 12.6558C27.9275 33.9464 26.7893 45.2505 15.5801 54.1779C30.0703 49.1192 34.5288 35.5723 36.5866 1.53343C33.7314 2.70729 32.8074 5.43819 31.0135 8.22117C29.6239 10.1761 28.859 11.6487 27.1879 12.6558Z" fill="#B3B3B3" fill-opacity="0.64"/>
  <path d="M37.7005 3.33396C36.2496 27.381 34.8395 38.3443 28.4407 45.4324C37.5797 40.2742 41.3873 36.5154 43.7881 12.3367C41.7371 11.4531 40.7916 10.8556 40.187 8.30688C39.9173 6.31365 38.9201 5.06435 37.7005 3.33396Z" fill="#B3B3B3" fill-opacity="0.64"/>
  <defs>
    <linearGradient id="paint0_linear_59_86" x1="23.9311" y1="15.4951" x2="2.67034" y2="66.1113" gradientUnits="userSpaceOnUse">
      <stop stop-color="#FE2EFD" stop-opacity="0"/>
      <stop offset="0.404724" stop-color="#FE30FD"/>
      <stop offset="0.586755" stop-color="#FE30FD"/>
      <stop offset="0.860624" stop-color="#00FFD2"/>
    </linearGradient>
    <linearGradient id="paint1_linear_59_86" x1="35.4396" y1="3.40179" x2="18.7626" y2="52.8477" gradientUnits="userSpaceOnUse">
      <stop stop-color="#00FED1"/>
      <stop offset="0.34" stop-color="#FE30FD"/>
      <stop offset="0.68" stop-color="#FE30FD"/>
      <stop offset="1" stop-color="#00FED1"/>
    </linearGradient>
    <linearGradient id="paint2_linear_59_86" x1="38.5602" y1="2.32899" x2="32.416" y2="43.2901" gradientUnits="userSpaceOnUse">
      <stop stop-color="#00FED1"/>
      <stop offset="0.225" stop-color="#00FED1"/>
      <stop offset="0.55" stop-color="#7331FF"/>
      <stop offset="0.79" stop-color="#7331FF"/>
      <stop offset="1" stop-color="#00FED1"/>
    </linearGradient>
  </defs>
</svg>